<svg width="160" height="32" viewBox="0 0 160 32" fill="none" xmlns="http://www.w3.org/2000/svg">
<g clip-path="url(#clip0_16_2)">
<path d="M5.0459 27.5679C4.96863 27.5676 4.89215 27.5527 4.82094 27.5241C4.74973 27.4955 4.68515 27.4538 4.63089 27.4015C-1.7287 21.3525 0.281161 9.89646 0.371155 9.4114L0.441157 9.02144L0.851166 8.95487C1.36114 8.86926 13.4053 6.96706 19.7599 13.0066C19.8704 13.1121 19.9324 13.2548 19.9324 13.4037C19.9324 13.5526 19.8704 13.6953 19.7599 13.8007C19.649 13.9058 19.4989 13.9648 19.3425 13.9648C19.186 13.9648 19.0358 13.9058 18.925 13.8007C13.6352 8.77891 3.63598 9.73002 1.47112 10.0011C1.18114 12.0602 0.1762 21.5712 5.46585 26.6026C5.57631 26.708 5.63833 26.8508 5.63833 26.9996C5.63833 27.1485 5.57631 27.2913 5.46585 27.3967C5.41198 27.4513 5.34684 27.4945 5.27459 27.524C5.20233 27.5534 5.12451 27.5684 5.0459 27.5679Z" fill="#62ACEF"/>
<path d="M18.6053 31.8044C14.4106 31.8044 8.47593 31.0578 4.62618 27.4056C4.51572 27.3001 4.4537 27.1573 4.4537 27.0085C4.4537 26.8596 4.51572 26.7168 4.62618 26.6113C4.73703 26.5063 4.8872 26.4473 5.04369 26.4473C5.20019 26.4473 5.35028 26.5063 5.46115 26.6113C10.7508 31.6332 20.7502 30.6868 22.915 30.411C23.205 28.3519 24.21 18.8361 18.9202 13.8096C18.8099 13.7041 18.7477 13.5613 18.7477 13.4124C18.7477 13.2636 18.8099 13.1208 18.9202 13.0154C19.0312 12.9102 19.1812 12.8513 19.3378 12.8513C19.4943 12.8513 19.6443 12.9102 19.7551 13.0154C26.1098 19.0644 24.1049 30.5204 24.015 31.0055L23.9449 31.3954L23.535 31.462C21.9033 31.6952 20.2553 31.8097 18.6053 31.8044Z" fill="#62ACEF"/>
<path d="M42.1982 27.5682C42.0431 27.567 41.8945 27.5091 41.7831 27.4066C41.6727 27.3011 41.6107 27.1583 41.6107 27.0094C41.6107 26.8606 41.6727 26.7178 41.7831 26.6124C47.0628 21.581 46.0628 12.07 45.7779 10.0109C43.613 9.73506 33.6087 8.78396 28.3241 13.8106C28.2131 13.9156 28.0631 13.9746 27.9066 13.9746C27.75 13.9746 27.5999 13.9156 27.489 13.8106C27.3786 13.7051 27.3165 13.5623 27.3165 13.4134C27.3165 13.2646 27.3786 13.1218 27.489 13.0164C33.8486 6.97686 45.8929 8.88383 46.4029 8.96467L46.8128 9.03125L46.8828 9.4212C46.9728 9.90626 48.9726 21.3576 42.6231 27.4066C42.5082 27.5097 42.3562 27.5676 42.1982 27.5682Z" fill="#62ACEF"/>
<path d="M28.6342 31.8043C26.9824 31.809 25.3326 31.6929 23.6996 31.4571L23.2896 31.3906L23.2196 31.0006C23.1296 30.5155 21.1247 19.0595 27.4793 13.0105C27.5901 12.9055 27.7403 12.8465 27.8968 12.8465C28.0533 12.8465 28.2033 12.9055 28.3142 13.0105C28.4247 13.1159 28.4867 13.2587 28.4867 13.4076C28.4867 13.5564 28.4247 13.6992 28.3142 13.8047C23.0246 18.836 24.0296 28.347 24.3195 30.4062C26.4844 30.6821 36.4887 31.6331 41.7733 26.6066C41.8843 26.5014 42.0343 26.4425 42.1908 26.4425C42.3473 26.4425 42.4975 26.5014 42.6083 26.6066C42.7187 26.712 42.7807 26.8547 42.7807 27.0036C42.7807 27.1525 42.7187 27.2952 42.6083 27.4007C38.7636 31.0624 32.829 31.8043 28.6342 31.8043Z" fill="#62ACEF"/>
<path d="M23.4444 31.6242L23.1045 31.3959C22.6795 31.1106 12.7451 24.3577 12.7451 15.8121C12.7451 7.26643 22.6845 0.513596 23.1045 0.228265L23.4444 0L23.7845 0.228265C24.2094 0.513596 34.1438 7.25692 34.1438 15.8121C34.1438 24.3577 24.2044 31.1106 23.7845 31.3959L23.4444 31.6242ZM23.4444 1.38386C21.7096 2.64406 13.9251 8.70259 13.9251 15.8073C13.9251 22.9121 21.7096 28.9706 23.4444 30.2308C25.1794 28.9706 32.9638 22.9121 32.9638 15.8073C32.9638 8.70259 25.1843 2.64882 23.4444 1.38386Z" fill="#62ACEF"/>
<path d="M51.9011 2.46667H63.2751V3.08267L52.8471 17.3607H56.3671C58.5817 17.3607 60.1951 17.192 61.2071 16.8547C61.7937 16.664 62.2191 16.4 62.4831 16.0627C62.7471 15.7107 62.8791 15.2633 62.8791 14.7207L63.1211 14.6767V17.8667H51.0871V17.1627L61.2951 2.97267C58.0537 2.97267 55.8831 3.10467 54.7831 3.36867C53.5804 3.662 52.8031 4.058 52.4511 4.55667C52.2604 4.85 52.1651 5.19467 52.1651 5.59067L51.9011 5.63467V2.46667ZM69.4978 7.43867V12.8947C69.4978 14.464 69.5418 15.5347 69.6298 16.1067C69.7325 16.6787 69.8718 17.038 70.0478 17.1847C70.3851 17.4633 70.9205 17.6027 71.6538 17.6027L71.6978 17.8667H65.7578L65.8018 17.6027C66.1685 17.6027 66.4545 17.588 66.6598 17.5587C66.8651 17.5293 67.0558 17.4487 67.2318 17.3167C67.4225 17.1847 67.5545 17.038 67.6278 16.8767C67.7158 16.7007 67.7891 16.4147 67.8478 16.0187C67.9211 15.5053 67.9578 14.464 67.9578 12.8947V7.43867C67.9578 5.91333 67.9138 4.85 67.8258 4.24867C67.7378 3.64733 67.6058 3.27333 67.4298 3.12667C67.0778 2.848 66.5351 2.70867 65.8018 2.70867L65.7578 2.46667H71.6978L71.6538 2.70867C70.9205 2.70867 70.3851 2.848 70.0478 3.12667C69.6811 3.43467 69.4978 4.872 69.4978 7.43867ZM82.5464 17.6027C83.1037 17.6027 83.4924 17.5587 83.7124 17.4707C83.9471 17.3827 84.0644 17.1553 84.0644 16.7887C84.0644 16.422 83.6757 15.1753 82.8984 13.0487H76.1884C75.5577 14.9113 75.2424 16.0847 75.2424 16.5687C75.2424 17.038 75.3597 17.3313 75.5944 17.4487C75.8437 17.5513 76.2837 17.6027 76.9144 17.6027L76.9584 17.8667H72.0084L72.0524 17.6027C72.4777 17.6027 72.8077 17.566 73.0424 17.4927C73.2917 17.4193 73.5557 17.2287 73.8344 16.9207C74.1277 16.598 74.4064 16.136 74.6704 15.5347C74.9344 14.9333 75.2497 14.09 75.6164 13.0047L77.5744 7.35067C78.2637 5.356 78.6084 4.146 78.6084 3.72067C78.6084 3.29533 78.5057 3.024 78.3004 2.90667C78.0951 2.77467 77.6991 2.70867 77.1124 2.70867L77.0684 2.46667H80.6984L84.5924 13.0047C85.2524 14.75 85.6924 15.8573 85.9124 16.3267C86.1471 16.796 86.3671 17.0967 86.5724 17.2287C86.9391 17.478 87.4011 17.6027 87.9584 17.6027L88.0024 17.8667H82.5024L82.5464 17.6027ZM79.4664 3.65467L76.3644 12.5207H82.7224L79.4664 3.65467ZM102.11 7.41667V17.9767H101.428L91.0664 4.88667V12.8507C91.0664 14.3173 91.1324 15.3733 91.2644 16.0187C91.3964 16.664 91.6164 17.0893 91.9244 17.2947C92.2324 17.5 92.7384 17.6027 93.4424 17.6027L93.4864 17.8667H88.0744L88.1184 17.6027C88.8224 17.6027 89.3284 17.5 89.6364 17.2947C89.9444 17.0893 90.1644 16.664 90.2964 16.0187C90.4431 15.3733 90.5164 14.3173 90.5164 12.8507V7.41667C90.5164 5.95 90.4431 4.90133 90.2964 4.27067C90.1644 3.62533 89.9444 3.20733 89.6364 3.01667C89.3431 2.81134 88.8371 2.70867 88.1184 2.70867L88.0744 2.46667H91.0664L101.56 15.5567V7.41667C101.56 5.96467 101.487 4.916 101.34 4.27067C101.208 3.62533 100.988 3.20733 100.68 3.01667C100.372 2.81134 99.8591 2.70867 99.1404 2.70867L99.0964 2.46667H104.552L104.508 2.70867C103.79 2.70867 103.276 2.81134 102.968 3.01667C102.66 3.20733 102.44 3.62533 102.308 4.27067C102.176 4.916 102.11 5.96467 102.11 7.41667ZM110.254 7.43867V12.8947C110.254 14.464 110.298 15.5347 110.386 16.1067C110.488 16.6787 110.628 17.038 110.804 17.1847C111.141 17.4633 111.676 17.6027 112.41 17.6027L112.454 17.8667H106.514L106.558 17.6027C106.924 17.6027 107.21 17.588 107.416 17.5587C107.621 17.5293 107.812 17.4487 107.988 17.3167C108.178 17.1847 108.31 17.038 108.384 16.8767C108.472 16.7007 108.545 16.4147 108.604 16.0187C108.677 15.5053 108.714 14.464 108.714 12.8947V7.43867C108.714 5.91333 108.67 4.85 108.582 4.24867C108.494 3.64733 108.362 3.27333 108.186 3.12667C107.834 2.848 107.291 2.70867 106.558 2.70867L106.514 2.46667H112.454L112.41 2.70867C111.676 2.70867 111.141 2.848 110.804 3.12667C110.437 3.43467 110.254 4.872 110.254 7.43867Z" fill="#62ACEF"/>
<path d="M52.1431 31.3547C51.6004 31.3547 51.1604 31.175 50.8231 30.8157C50.4857 30.4563 50.3171 29.987 50.3171 29.4077V29.1547C50.3171 29.0813 50.3537 29.0447 50.4271 29.0447H50.9661C51.0394 29.0447 51.0761 29.0813 51.0761 29.1547V29.3747C51.0761 29.7633 51.1751 30.0787 51.3731 30.3207C51.5711 30.5553 51.8277 30.6727 52.1431 30.6727C52.4511 30.6727 52.7077 30.559 52.9131 30.3317C53.1184 30.1043 53.2211 29.8037 53.2211 29.4297C53.2211 29.1803 53.1697 28.9677 53.0671 28.7917C52.9717 28.6083 52.8434 28.4507 52.6821 28.3187C52.5281 28.1793 52.2677 27.9703 51.9011 27.6917C51.5344 27.4203 51.2447 27.1893 51.0321 26.9987C50.8194 26.8007 50.6434 26.566 50.5041 26.2947C50.3721 26.0233 50.3061 25.7043 50.3061 25.3377C50.3061 24.7657 50.4711 24.3147 50.8011 23.9847C51.1311 23.6473 51.5601 23.4787 52.0881 23.4787C52.6454 23.4787 53.0891 23.662 53.4191 24.0287C53.7564 24.388 53.9251 24.8683 53.9251 25.4697V25.7447C53.9251 25.818 53.8884 25.8547 53.8151 25.8547H53.2651C53.1917 25.8547 53.1551 25.818 53.1551 25.7447V25.4587C53.1551 25.07 53.0561 24.7583 52.8581 24.5237C52.6674 24.2817 52.4107 24.1607 52.0881 24.1607C51.7947 24.1607 51.5527 24.267 51.3621 24.4797C51.1714 24.685 51.0761 24.9783 51.0761 25.3597C51.0761 25.587 51.1164 25.7887 51.1971 25.9647C51.2851 26.1333 51.4134 26.2947 51.5821 26.4487C51.7507 26.6027 52.0001 26.8043 52.3301 27.0537C52.7701 27.3763 53.0964 27.6403 53.3091 27.8457C53.5291 28.0437 53.6977 28.2637 53.8151 28.5057C53.9324 28.7403 53.9911 29.0263 53.9911 29.3637C53.9911 29.965 53.8187 30.449 53.4741 30.8157C53.1294 31.175 52.6857 31.3547 52.1431 31.3547ZM58.272 23.5557C58.8074 23.5557 59.24 23.7537 59.57 24.1497C59.9 24.5383 60.065 25.0517 60.065 25.6897C60.065 26.3203 59.9037 26.83 59.581 27.2187C59.2584 27.6 58.833 27.7907 58.305 27.7907H57.172C57.1427 27.7907 57.128 27.8053 57.128 27.8347V31.1567C57.128 31.23 57.0914 31.2667 57.018 31.2667H56.457C56.3837 31.2667 56.347 31.23 56.347 31.1567V23.6657C56.347 23.5923 56.3837 23.5557 56.457 23.5557H58.272ZM58.173 27.1527C58.503 27.1527 58.7707 27.0207 58.976 26.7567C59.1814 26.4927 59.284 26.1407 59.284 25.7007C59.284 25.2607 59.1814 24.9087 58.976 24.6447C58.7707 24.3733 58.503 24.2377 58.173 24.2377H57.172C57.1427 24.2377 57.128 24.2523 57.128 24.2817V27.1087C57.128 27.138 57.1427 27.1527 57.172 27.1527H58.173ZM65.0482 31.2667C64.9822 31.2667 64.9419 31.2337 64.9272 31.1677L64.6522 29.8037C64.6522 29.789 64.6449 29.778 64.6302 29.7707C64.6229 29.7633 64.6119 29.7597 64.5972 29.7597H62.6062C62.5916 29.7597 62.5769 29.7633 62.5622 29.7707C62.5549 29.778 62.5512 29.789 62.5512 29.8037L62.2762 31.1677C62.2689 31.2337 62.2286 31.2667 62.1552 31.2667H61.5942C61.5576 31.2667 61.5282 31.2557 61.5062 31.2337C61.4916 31.2117 61.4879 31.1823 61.4952 31.1457L63.1452 23.6657C63.1599 23.5997 63.2002 23.5667 63.2662 23.5667H63.9262C63.9996 23.5667 64.0399 23.5997 64.0472 23.6657L65.7192 31.1457V31.1677C65.7192 31.2337 65.6862 31.2667 65.6202 31.2667H65.0482ZM62.6942 29.0777C62.6942 29.107 62.7052 29.1217 62.7272 29.1217H64.4652C64.4872 29.1217 64.4982 29.107 64.4982 29.0777L63.6182 24.7547C63.6109 24.7327 63.6036 24.7217 63.5962 24.7217C63.5889 24.7217 63.5816 24.7327 63.5742 24.7547L62.6942 29.0777ZM75.8981 31.1347C75.9128 31.1493 75.9201 31.1713 75.9201 31.2007C75.9201 31.2153 75.9128 31.23 75.8981 31.2447C75.8834 31.2593 75.8614 31.2667 75.8321 31.2667H75.2381C75.1794 31.2667 75.1354 31.2447 75.1061 31.2007L74.6551 30.5407C74.6478 30.526 74.6368 30.5187 74.6221 30.5187C74.6074 30.5187 74.5964 30.5223 74.5891 30.5297C74.3178 30.823 74.0354 31.0357 73.7421 31.1677C73.4561 31.2997 73.1334 31.3657 72.7741 31.3657C72.2094 31.3657 71.7621 31.208 71.4321 30.8927C71.1021 30.5773 70.9371 30.13 70.9371 29.5507C70.9371 29.0593 71.0544 28.634 71.2891 28.2747C71.5238 27.908 71.8464 27.5523 72.2571 27.2077C72.2791 27.2003 72.2828 27.182 72.2681 27.1527C72.0041 26.7567 71.8098 26.4523 71.6851 26.2397C71.5604 26.0197 71.4761 25.8363 71.4321 25.6897C71.3954 25.5357 71.3771 25.3633 71.3771 25.1727C71.3771 24.6593 71.5238 24.2487 71.8171 23.9407C72.1104 23.6327 72.4954 23.4787 72.9721 23.4787C73.4488 23.4787 73.8374 23.6363 74.1381 23.9517C74.4461 24.2597 74.6001 24.663 74.6001 25.1617C74.6001 25.609 74.4864 25.994 74.2591 26.3167C74.0318 26.632 73.7054 26.9693 73.2801 27.3287C73.2581 27.336 73.2544 27.3543 73.2691 27.3837C73.5624 27.7943 73.7788 28.106 73.9181 28.3187L74.6001 29.2867C74.6074 29.294 74.6184 29.2977 74.6331 29.2977C74.6478 29.2977 74.6588 29.294 74.6661 29.2867C74.7688 29.1327 74.9448 28.8357 75.1941 28.3957C75.2088 28.3663 75.2308 28.348 75.2601 28.3407C75.2894 28.3333 75.3188 28.337 75.3481 28.3517L75.7661 28.5937C75.8248 28.6303 75.8358 28.6817 75.7991 28.7477C75.5644 29.1803 75.3261 29.5653 75.0841 29.9027C75.0768 29.9247 75.0768 29.9467 75.0841 29.9687L75.8981 31.1347ZM72.9941 24.1937C72.7448 24.1937 72.5431 24.2853 72.3891 24.4687C72.2351 24.6447 72.1581 24.8867 72.1581 25.1947C72.1581 25.4 72.1948 25.5943 72.2681 25.7777C72.3488 25.961 72.5284 26.2653 72.8071 26.6907C72.8218 26.72 72.8401 26.7237 72.8621 26.7017C73.1701 26.4377 73.4048 26.1883 73.5661 25.9537C73.7348 25.719 73.8191 25.455 73.8191 25.1617C73.8191 24.8683 73.7421 24.6337 73.5881 24.4577C73.4341 24.2817 73.2361 24.1937 72.9941 24.1937ZM72.8511 30.6837C73.0931 30.6837 73.3204 30.625 73.5331 30.5077C73.7458 30.383 73.9621 30.196 74.1821 29.9467C74.1968 29.9247 74.1968 29.9027 74.1821 29.8807L73.6541 29.1217L72.7411 27.8347C72.7264 27.8127 72.7081 27.8127 72.6861 27.8347C72.3708 28.106 72.1288 28.3737 71.9601 28.6377C71.7988 28.9017 71.7181 29.1987 71.7181 29.5287C71.7181 29.8733 71.8171 30.152 72.0151 30.3647C72.2131 30.5773 72.4918 30.6837 72.8511 30.6837ZM85.6242 29.1767C85.6315 29.8367 85.4555 30.35 85.0962 30.7167C84.7368 31.0833 84.2565 31.2667 83.6552 31.2667H81.9722C81.8988 31.2667 81.8622 31.23 81.8622 31.1567V23.6767C81.8622 23.6033 81.8988 23.5667 81.9722 23.5667H83.5562C84.1868 23.5667 84.6818 23.7427 85.0412 24.0947C85.4005 24.4393 85.5802 24.9343 85.5802 25.5797C85.5802 26.401 85.2758 26.962 84.6672 27.2627C84.6525 27.27 84.6452 27.2773 84.6452 27.2847C84.6452 27.292 84.6488 27.2993 84.6562 27.3067C85.3015 27.6807 85.6242 28.304 85.6242 29.1767ZM82.6872 24.2487C82.6578 24.2487 82.6432 24.2633 82.6432 24.2927V26.9437C82.6432 26.973 82.6578 26.9877 82.6872 26.9877H83.5562C83.9522 26.9877 84.2602 26.8703 84.4802 26.6357C84.7002 26.401 84.8102 26.071 84.8102 25.6457C84.8102 25.2057 84.7002 24.8647 84.4802 24.6227C84.2602 24.3733 83.9522 24.2487 83.5562 24.2487H82.6872ZM83.6002 30.5737C83.9888 30.5737 84.2932 30.4453 84.5132 30.1887C84.7332 29.9247 84.8432 29.558 84.8432 29.0887C84.8432 28.612 84.7332 28.2417 84.5132 27.9777C84.2932 27.7137 83.9888 27.5817 83.6002 27.5817H82.6872C82.6578 27.5817 82.6432 27.5963 82.6432 27.6257V30.5297C82.6432 30.559 82.6578 30.5737 82.6872 30.5737H83.6002ZM91.4254 24.1387C91.4254 24.212 91.3887 24.2487 91.3154 24.2487H88.7634C88.734 24.2487 88.7194 24.2633 88.7194 24.2927V27.0207C88.7194 27.05 88.734 27.0647 88.7634 27.0647H90.3694C90.4427 27.0647 90.4794 27.1013 90.4794 27.1747V27.6477C90.4794 27.721 90.4427 27.7577 90.3694 27.7577H88.7634C88.734 27.7577 88.7194 27.7723 88.7194 27.8017V30.5407C88.7194 30.57 88.734 30.5847 88.7634 30.5847H91.3154C91.3887 30.5847 91.4254 30.6213 91.4254 30.6947V31.1567C91.4254 31.23 91.3887 31.2667 91.3154 31.2667H88.0484C87.975 31.2667 87.9384 31.23 87.9384 31.1567V23.6767C87.9384 23.6033 87.975 23.5667 88.0484 23.5667H91.3154C91.3887 23.5667 91.4254 23.6033 91.4254 23.6767V24.1387ZM97.0367 31.2667C96.9707 31.2667 96.9304 31.2337 96.9157 31.1677L96.6407 29.8037C96.6407 29.789 96.6334 29.778 96.6187 29.7707C96.6114 29.7633 96.6004 29.7597 96.5857 29.7597H94.5947C94.5801 29.7597 94.5654 29.7633 94.5507 29.7707C94.5434 29.778 94.5397 29.789 94.5397 29.8037L94.2647 31.1677C94.2574 31.2337 94.2171 31.2667 94.1437 31.2667H93.5827C93.5461 31.2667 93.5167 31.2557 93.4947 31.2337C93.4801 31.2117 93.4764 31.1823 93.4837 31.1457L95.1337 23.6657C95.1484 23.5997 95.1887 23.5667 95.2547 23.5667H95.9147C95.9881 23.5667 96.0284 23.5997 96.0357 23.6657L97.7077 31.1457V31.1677C97.7077 31.2337 97.6747 31.2667 97.6087 31.2667H97.0367ZM94.6827 29.0777C94.6827 29.107 94.6937 29.1217 94.7157 29.1217H96.4537C96.4757 29.1217 96.4867 29.107 96.4867 29.0777L95.6067 24.7547C95.5994 24.7327 95.5921 24.7217 95.5847 24.7217C95.5774 24.7217 95.5701 24.7327 95.5627 24.7547L94.6827 29.0777ZM101.669 31.3547C101.105 31.3547 100.65 31.1603 100.305 30.7717C99.9608 30.383 99.7885 29.8697 99.7885 29.2317V23.6767C99.7885 23.6033 99.8251 23.5667 99.8985 23.5667H100.459C100.533 23.5667 100.569 23.6033 100.569 23.6767V29.3197C100.569 29.723 100.668 30.0493 100.866 30.2987C101.072 30.548 101.339 30.6727 101.669 30.6727C102.007 30.6727 102.278 30.548 102.483 30.2987C102.689 30.0493 102.791 29.723 102.791 29.3197V23.6767C102.791 23.6033 102.828 23.5667 102.901 23.5667H103.462C103.536 23.5667 103.572 23.6033 103.572 23.6767V29.2317C103.572 29.8697 103.396 30.383 103.044 30.7717C102.7 31.1603 102.241 31.3547 101.669 31.3547ZM109.673 23.5667C109.746 23.5667 109.783 23.6033 109.783 23.6767V24.1387C109.783 24.212 109.746 24.2487 109.673 24.2487H108.221C108.192 24.2487 108.177 24.2633 108.177 24.2927V31.1567C108.177 31.23 108.14 31.2667 108.067 31.2667H107.506C107.433 31.2667 107.396 31.23 107.396 31.1567V24.2927C107.396 24.2633 107.381 24.2487 107.352 24.2487H105.988C105.915 24.2487 105.878 24.212 105.878 24.1387V23.6767C105.878 23.6033 105.915 23.5667 105.988 23.5667H109.673ZM113.422 31.2557C113.349 31.2557 113.312 31.219 113.312 31.1457V27.8567C113.312 27.8273 113.309 27.809 113.301 27.8017L111.772 23.6987L111.761 23.6547C111.761 23.596 111.794 23.5667 111.86 23.5667H112.454C112.52 23.5667 112.564 23.596 112.586 23.6547L113.664 26.8777C113.672 26.8923 113.683 26.8997 113.697 26.8997C113.712 26.8997 113.723 26.8923 113.73 26.8777L114.808 23.6547C114.83 23.596 114.874 23.5667 114.94 23.5667H115.534C115.571 23.5667 115.597 23.5813 115.611 23.6107C115.633 23.6327 115.637 23.662 115.622 23.6987L114.104 27.8017C114.097 27.809 114.093 27.8273 114.093 27.8567V31.1457C114.093 31.219 114.057 31.2557 113.983 31.2557H113.422ZM123.125 31.3547C122.56 31.3547 122.105 31.1823 121.761 30.8377C121.423 30.493 121.255 30.031 121.255 29.4517V25.3707C121.255 24.7987 121.423 24.3403 121.761 23.9957C122.105 23.651 122.56 23.4787 123.125 23.4787C123.697 23.4787 124.151 23.651 124.489 23.9957C124.833 24.333 125.006 24.7913 125.006 25.3707V25.5577C125.006 25.631 124.969 25.6677 124.896 25.6677L124.324 25.7007C124.25 25.7007 124.214 25.664 124.214 25.5907V25.3157C124.214 24.971 124.115 24.6923 123.917 24.4797C123.719 24.267 123.455 24.1607 123.125 24.1607C122.802 24.1607 122.538 24.267 122.333 24.4797C122.135 24.6923 122.036 24.971 122.036 25.3157V29.5177C122.036 29.8623 122.135 30.141 122.333 30.3537C122.538 30.5663 122.802 30.6727 123.125 30.6727C123.455 30.6727 123.719 30.5663 123.917 30.3537C124.115 30.141 124.214 29.8623 124.214 29.5177V29.2427C124.214 29.1693 124.25 29.1327 124.324 29.1327L124.896 29.1657C124.969 29.1657 125.006 29.2023 125.006 29.2757V29.4517C125.006 30.031 124.833 30.493 124.489 30.8377C124.144 31.1823 123.689 31.3547 123.125 31.3547ZM131.048 24.1387C131.048 24.212 131.011 24.2487 130.938 24.2487H128.386C128.356 24.2487 128.342 24.2633 128.342 24.2927V27.0207C128.342 27.05 128.356 27.0647 128.386 27.0647H129.992C130.065 27.0647 130.102 27.1013 130.102 27.1747V27.6477C130.102 27.721 130.065 27.7577 129.992 27.7577H128.386C128.356 27.7577 128.342 27.7723 128.342 27.8017V30.5407C128.342 30.57 128.356 30.5847 128.386 30.5847H130.938C131.011 30.5847 131.048 30.6213 131.048 30.6947V31.1567C131.048 31.23 131.011 31.2667 130.938 31.2667H127.671C127.597 31.2667 127.561 31.23 127.561 31.1567V23.6767C127.561 23.6033 127.597 23.5667 127.671 23.5667H130.938C131.011 23.5667 131.048 23.6033 131.048 23.6767V24.1387ZM136.567 23.6767C136.567 23.6033 136.603 23.5667 136.677 23.5667H137.227C137.3 23.5667 137.337 23.6033 137.337 23.6767V31.1567C137.337 31.23 137.3 31.2667 137.227 31.2667H136.578C136.519 31.2667 136.479 31.2373 136.457 31.1787L134.312 25.4917C134.304 25.4697 134.293 25.4623 134.279 25.4697C134.264 25.4697 134.257 25.4807 134.257 25.5027L134.268 31.1567C134.268 31.23 134.231 31.2667 134.158 31.2667H133.597C133.523 31.2667 133.487 31.23 133.487 31.1567V23.6767C133.487 23.6033 133.523 23.5667 133.597 23.5667H134.235C134.293 23.5667 134.334 23.596 134.356 23.6547L136.512 29.3527C136.519 29.3747 136.53 29.3857 136.545 29.3857C136.559 29.3783 136.567 29.3637 136.567 29.3417V23.6767ZM143.498 23.5667C143.572 23.5667 143.608 23.6033 143.608 23.6767V24.1387C143.608 24.212 143.572 24.2487 143.498 24.2487H142.046C142.017 24.2487 142.002 24.2633 142.002 24.2927V31.1567C142.002 31.23 141.966 31.2667 141.892 31.2667H141.331C141.258 31.2667 141.221 31.23 141.221 31.1567V24.2927C141.221 24.2633 141.207 24.2487 141.177 24.2487H139.813C139.74 24.2487 139.703 24.212 139.703 24.1387V23.6767C139.703 23.6033 139.74 23.5667 139.813 23.5667H143.498ZM149.47 24.1387C149.47 24.212 149.433 24.2487 149.36 24.2487H146.808C146.778 24.2487 146.764 24.2633 146.764 24.2927V27.0207C146.764 27.05 146.778 27.0647 146.808 27.0647H148.414C148.487 27.0647 148.524 27.1013 148.524 27.1747V27.6477C148.524 27.721 148.487 27.7577 148.414 27.7577H146.808C146.778 27.7577 146.764 27.7723 146.764 27.8017V30.5407C146.764 30.57 146.778 30.5847 146.808 30.5847H149.36C149.433 30.5847 149.47 30.6213 149.47 30.6947V31.1567C149.47 31.23 149.433 31.2667 149.36 31.2667H146.093C146.019 31.2667 145.983 31.23 145.983 31.1567V23.6767C145.983 23.6033 146.019 23.5667 146.093 23.5667H149.36C149.433 23.5667 149.47 23.6033 149.47 23.6767V24.1387ZM154.989 31.2667C154.923 31.2667 154.879 31.2373 154.857 31.1787L153.735 27.7797C153.727 27.7577 153.713 27.7467 153.691 27.7467H152.734C152.704 27.7467 152.69 27.7613 152.69 27.7907V31.1567C152.69 31.23 152.653 31.2667 152.58 31.2667H152.019C151.945 31.2667 151.909 31.23 151.909 31.1567V23.6767C151.909 23.6033 151.945 23.5667 152.019 23.5667H153.834C154.369 23.5667 154.802 23.7647 155.132 24.1607C155.462 24.5493 155.627 25.059 155.627 25.6897C155.627 26.1663 155.524 26.577 155.319 26.9217C155.113 27.2663 154.835 27.5083 154.483 27.6477C154.453 27.655 154.442 27.6733 154.45 27.7027L155.649 31.1457L155.66 31.1897C155.66 31.241 155.627 31.2667 155.561 31.2667H154.989ZM152.734 24.2487C152.704 24.2487 152.69 24.2633 152.69 24.2927V27.0757C152.69 27.105 152.704 27.1197 152.734 27.1197H153.724C154.061 27.1197 154.332 26.9913 154.538 26.7347C154.743 26.4707 154.846 26.1223 154.846 25.6897C154.846 25.257 154.743 24.9087 154.538 24.6447C154.332 24.3807 154.061 24.2487 153.724 24.2487H152.734Z" fill="white"/>
</g>
<defs>
<clipPath id="clip0_16_2">
<rect width="160" height="32" fill="white"/>
</clipPath>
</defs>
</svg>
